#!OML:ASF I:\Actors\actors\Patient Classification 2\Patient 1\Session 1\actor1.ASF
:FULLY-SPECIFIED
:DEGREES
553
root -0.684718 18.7285 5.68833 3.71994 -5.85638 -3.76491
lowerback 4.8207 2.56654 -2.98005
upperback -2.07925 3.10153 -2.58745
thorax -4.87455 1.58565 -1.29181
lowerneck -12.3735 -2.93692 1.41225
upperneck 20.3618 -7.81192 15.0585
head 9.07563 -2.05198 4.00651
rclavicle -2.68359e-014 1.74931e-014
rhumerus 46.8684 39.3869 -25.1269
rradius 106.922
rwrist -13.2909
rhand -11.2911 -35.3614
rfingers 7.12502
rthumb 14.7401 -64.8173
lclavicle -2.68359e-014 1.74931e-014
lhumerus 4.61416 20.9604 82.6853
lradius 118.734
lwrist 101.202
lhand -27.2612 -27.1333
lfingers 7.12502
lthumb -0.672389 2.84537
rfemur 0 0 0
rtibia 0
rfoot 0 0
rtoes 0
lfemur -5.36955 -5.93459 -10.696
ltibia 22.4105
lfoot -26.3731 18.2603
ltoes -53.5925
554
root -0.682905 18.7271 5.68901 3.698 -5.80329 -3.77994
lowerback 4.85524 2.58431 -2.9685
upperback -2.12715 3.11733 -2.70057
thorax -4.93754 1.59155 -1.42059
lowerneck -12.4907 -2.92064 1.45708
upperneck 20.4819 -7.85738 15.1904
head 9.15034 -2.04325 4.04279
rclavicle 5.15846e-014 -2.38542e-014
rhumerus 47.6059 39.3126 -24.9841
rradius 106.951
rwrist -13.4923
rhand -11.3522 -35.4005
rfingers 7.12502
rthumb 14.6812 -64.8607
lclavicle 5.15846e-014 -2.38542e-014
lhumerus 4.66743 20.8127 82.6896
lradius 118.713
lwrist 101.32
lhand -27.3395 -27.1539
lfingers 7.12502
lthumb -0.747964 2.82456
rfemur 0 0 0
rtibia 0
rfoot 0 0
rtoes 0
lfemur -5.36734 -5.95752 -10.6805
ltibia 22.4288
lfoot -26.3763 18.2009
ltoes -53.5401
555
root -0.681135 18.7267 5.68957 3.67554 -5.76317 -3.77837
lowerback 4.86306 2.61441 -2.97689
upperback -2.14868 3.15082 -2.80427
thorax -4.95935 1.60675 -1.5278
lowerneck -12.621 -2.91395 1.51028
upperneck 20.5686 -7.89668 15.2496
head 9.21128 -2.03957 4.05166
rclavicle 2.28602e-014 2.06736e-014
rhumerus 48.3297 39.216 -24.8844
rradius 106.96
rwrist -13.4763
rhand -11.2939 -35.9243
rfingers 7.12502
rthumb 14.7374 -65.3805
lclavicle 2.28602e-014 2.06736e-014
lhumerus 4.76004 20.649 82.7151
lradius 118.67
lwrist 101.393
lhand -27.2954 -27.191
lfingers 7.12502
lthumb -0.705432 2.78762
rfemur 0 0 0
rtibia 0
rfoot 0 0
rtoes 0
lfemur -5.35697 -6.0462 -10.6927
ltibia 22.4419
lfoot -26.3941 18.1781
ltoes -53.3696
556
root -0.680495 18.7271 5.68967 3.64048 -5.76089 -3.79052
lowerback 4.87521 2.66732 -3.02446
upperback -2.17918 3.21347 -2.86371
thorax -4.99758 1.63842 -1.57079
lowerneck -12.6356 -2.92722 1.50132
upperneck 20.5721 -7.92792 15.3066
head 9.22151 -2.04784 4.06964
rclavicle 0 -1.27222e-014
rhumerus 49.0718 39.0751 -24.69
rradius 107.025
rwrist -13.4144
rhand -11.1118 -36.33
rfingers 7.12502
rthumb 14.9128 -65.7732
lclavicle 0 -1.27222e-014
lhumerus 4.82582 20.4564 82.8365
lradius 118.641
lwrist 101.407
lhand -27.1944 -27.2642
lfingers 7.12502
lthumb -0.607843 2.71471
rfemur 0 0 0
rtibia 0
rfoot 0 0
rtoes 0
lfemur -5.32107 -6.05385 -10.6868
ltibia 22.4497
lfoot -26.3844 18.1819
ltoes -53.3655
557
root -0.679865 18.7261 5.68937 3.59302 -5.76688 -3.81344
lowerback 4.9005 2.72347 -3.10556
upperback -2.20511 3.27907 -2.88923
thorax -5.04242 1.67318 -1.56093
lowerneck -12.6972 -2.95309 1.37816
upperneck 20.6267 -7.98976 15.4716
head 9.27059 -2.06307 4.143
rclavicle 2.95195e-014 -2.06736e-014
rhumerus 49.981 38.863 -24.211
rradius 107.309
rwrist -13.6738
rhand -10.9861 -36.6586
rfingers 7.12502
rthumb 15.0339 -66.0928
lclavicle 2.95195e-014 -2.06736e-014
lhumerus 4.91064 20.2693 83.0424
lradius 118.621
lwrist 101.341
lhand -27.106 -27.3301
lfingers 7.12502
lthumb -0.522488 2.649
rfemur 0 0 0
rtibia 0
rfoot 0 0
rtoes 0
lfemur -5.27084 -6.04423 -10.6688
ltibia 22.4551
lfoot -26.4393 18.1818
ltoes -53.4025
558
root -0.678996 18.7254 5.6893 3.54489 -5.7561 -3.83397
lowerback 4.93495 2.76221 -3.18724
upperback -2.21309 3.32169 -2.91065
thorax -5.07408 1.69654 -1.54421
lowerneck -12.8885 -2.95701 1.26895
upperneck 20.7429 -8.04098 15.6267
head 9.36499 -2.06313 4.21314
rclavicle 5.94366e-014 -4.29375e-014
rhumerus 50.883 38.6777 -23.7798
rradius 107.566
rwrist -13.9929
rhand -10.8439 -37.1002
rfingers 7.12502
rthumb 15.1709 -66.524
lclavicle 5.94366e-014 -4.29375e-014
lhumerus 5.04206 20.1156 83.263
lradius 118.628
lwrist 101.193
lhand -27.1954 -27.1059
lfingers 7.12502
lthumb -0.60879 2.87297
rfemur 0 0 0
rtibia 0
rfoot 0 0
rtoes 0
lfemur -5.22379 -6.06467 -10.653
ltibia 22.4627
lfoot -26.5097 18.1771
ltoes -53.4022
559
root -0.677627 18.725 5.68899 3.51767 -5.73428 -3.85609
lowerback 4.963 2.77436 -3.21886
upperback -2.22682 3.33141 -2.95455
thorax -5.10383 1.70167 -1.57535
lowerneck -13.0888 -2.93091 1.30587
upperneck 20.8688 -8.04049 15.5984
head 9.44575 -2.04509 4.19963
rclavicle 8.99501e-015 -1.27222e-014
rhumerus 51.5772 38.5699 -23.6938
rradius 107.548
rwrist -14.0475
rhand -10.5114 -37.1272
rfingers 7.12502
rthumb 15.4911 -66.5266
lclavicle 8.99501e-015 -1.27222e-014
lhumerus 5.16408 19.9824 83.3842
lradius 118.646
lwrist 101.006
lhand -27.5248 -26.6519
lfingers 7.12502
lthumb -0.926945 3.32585
rfemur 0 0 0
rtibia 0
rfoot 0 0
rtoes 0
lfemur -5.20121 -6.0816 -10.6308
ltibia 22.4719
lfoot -26.5335 18.1284
ltoes -53.3176
560
root -0.675245 18.7234 5.6882 3.50244 -5.71024 -3.90143
lowerback 4.97278 2.79095 -3.19081
upperback -2.24125 3.35178 -3.00994
thorax -5.11958 1.70995 -1.65151
lowerneck -13.1892 -2.92509 1.43887
upperneck 20.9195 -8.04584 15.4667
head 9.47244 -2.04223 4.13009
rclavicle 3.97569e-016 -1.59028e-014
rhumerus 52.2659 38.4334 -23.6074
rradius 107.545
rwrist -14.131
rhand -10.2232 -36.9198
rfingers 7.12502
rthumb 15.7687 -66.2975
lclavicle 3.97569e-016 -1.59028e-014
lhumerus 5.27985 19.7975 83.433
lradius 118.638
lwrist 100.893
lhand -27.8467 -26.5345
lfingers 7.12502
lthumb -1.23787 3.44164
rfemur 0 0 0
rtibia 0
rfoot 0 0
rtoes 0
lfemur -5.19266 -6.1584 -10.5894
ltibia 22.4843
lfoot -26.5817 18.142
ltoes -53.2399
561
root -0.672995 18.7218 5.68841 3.46005 -5.70205 -3.95247
lowerback 4.99386 2.82604 -3.16299
upperback -2.25404 3.39671 -3.05669
thorax -5.14046 1.73052 -1.72156
lowerneck -13.2095 -2.933 1.45814
upperneck 20.9078 -8.07385 15.5215
head 9.47755 -2.04758 4.14244
rclavicle -3.30976e-014 -7.95139e-015
rhumerus 53.038 38.2717 -23.3726
rradius 107.648
rwrist -14.3829
rhand -9.94056 -37.0102
rfingers 7.12502
rthumb 16.0409 -66.3662
lclavicle -3.30976e-014 -7.95139e-015
lhumerus 5.35055 19.5896 83.4857
lradius 118.667
lwrist 100.883
lhand -28.1219 -26.6529
lfingers 7.12502
lthumb -1.50363 3.32152
rfemur 0 0 0
rtibia 0
rfoot 0 0
rtoes 0
lfemur -5.14718 -6.23127 -10.5501
ltibia 22.5035
lfoot -26.6087 18.2067
ltoes -53.2671
562
root -0.67196 18.7208 5.68994 3.39414 -5.70897 -3.98422
lowerback 5.04005 2.88143 -3.17009
upperback -2.27398 3.46344 -3.12468
thorax -5.18387 1.76262 -1.79831
lowerneck -13.2794 -2.94351 1.41428
upperneck 20.9497 -8.14651 15.7512
head 9.52752 -2.05474 4.22423
rclavicle 4.60683e-014 1.11319e-014
rhumerus 53.7203 38.0956 -23.183
rradius 107.762
rwrist -14.6598
rhand -9.75208 -37.2146
rfingers 7.12502
rthumb 16.2224 -66.5558
lclavicle 4.60683e-014 1.11319e-014
lhumerus 5.38879 19.3322 83.5208
lradius 118.699
lwrist 100.901
lhand -28.2932 -26.7784
lfingers 7.12502
lthumb -1.66904 3.19486
rfemur 0 0 0
rtibia 0
rfoot 0 0
rtoes 0
lfemur -5.06728 -6.25759 -10.531
ltibia 22.5213
lfoot -26.6112 18.2244
ltoes -53.3078
563
root -0.67202 18.7199 5.69145 3.32982 -5.71318 -4.02663
lowerback 5.06584 2.95902 -3.18401
upperback -2.27198 3.56092 -3.1993
thorax -5.19237 1.80989 -1.87902
lowerneck -13.3966 -2.96379 1.43099
upperneck 20.9839 -8.24459 15.962
head 9.58409 -2.06865 4.28533
rclavicle -5.38209e-014 1.74931e-014
rhumerus 54.3018 37.8517 -23.0343
rradius 107.903
rwrist -14.8675
rhand -9.68768 -37.3672
rfingers 7.12502
rthumb 16.2844 -66.7034
lclavicle -5.38209e-014 1.74931e-014
lhumerus 5.51079 18.9833 83.5455
lradius 118.635
lwrist 100.882
lhand -28.2861 -26.8312
lfingers 7.12502
lthumb -1.66222 3.14205
rfemur 0 0 0
rtibia 0
rfoot 0 0
rtoes 0
lfemur -4.99012 -6.29961 -10.4963
ltibia 22.5288
lfoot -26.6355 18.2866
ltoes -53.4245
564
root -0.672307 18.7196 5.69308 3.28952 -5.69578 -4.07256
lowerback 5.0637 3.01201 -3.22785
upperback -2.27342 3.62797 -3.20869
thorax -5.19463 1.84431 -1.87094
lowerneck -13.4502 -2.98644 1.36036
upperneck 21.0055 -8.30294 16.1067
head 9.61848 -2.08202 4.34266
rclavicle -6.81831e-014 2.38542e-014
rhumerus 54.9983 37.6246 -22.7666
rradius 108.042
rwrist -15.0644
rhand -9.32553 -37.5145
rfingers 7.12502
rthumb 16.6331 -66.8217
lclavicle -6.81831e-014 2.38542e-014
lhumerus 5.62868 18.7204 83.6109
lradius 118.516
lwrist 100.843
lhand -28.1976 -26.684
lfingers 7.12502
lthumb -1.57675 3.28989
rfemur 0 0 0
rtibia 0
rfoot 0 0
rtoes 0
lfemur -4.94102 -6.36844 -10.4545
ltibia 22.5297
lfoot -26.657 18.3332
ltoes -53.4694
565
root -0.671683 18.7195 5.69464 3.26392 -5.66089 -4.10235
lowerback 5.06683 3.02723 -3.29491
upperback -2.28319 3.64431 -3.17628
thorax -5.21308 1.85521 -1.80245
lowerneck -13.5406 -2.98979 1.25021
upperneck 21.0962 -8.32033 16.1726
head 9.67715 -2.08162 4.38592
rclavicle 3.87133e-014 -1.74931e-014
rhumerus 55.8568 37.3924 -22.3554
rradius 108.195
rwrist -15.3354
rhand -8.91575 -37.5559
rfingers 7.12502
rthumb 17.0275 -66.8296
lclavicle 3.87133e-014 -1.74931e-014
lhumerus 5.6907 18.5514 83.6824
lradius 118.406
lwrist 100.814
lhand -28.016 -26.5474
lfingers 7.12502
lthumb -1.40138 3.4277
rfemur 0 0 0
rtibia 0
rfoot 0 0
rtoes 0
lfemur -4.90982 -6.42344 -10.4283
ltibia 22.5317
lfoot -26.6785 18.3064
ltoes -53.4052
566
root -0.670284 18.719 5.69468 3.24359 -5.61418 -4.10357
lowerback 5.04698 3.04658 -3.34554
upperback -2.25481 3.66858 -3.17814
thorax -5.1752 1.86864 -1.77612
lowerneck -13.738 -2.99716 1.23138
upperneck 21.1916 -8.36206 16.1928
head 9.75575 -2.08416 4.39345
rclavicle 3.3694e-014 -6.36111e-015
rhumerus 56.6578 37.0375 -21.9822
rradius 108.351
rwrist -15.6095
rhand -8.81473 -37.5446
rfingers 7.12502
rthumb 17.1248 -66.8099
lclavicle 3.3694e-014 -6.36111e-015
lhumerus 5.85075 18.3005 83.7535
lradius 118.318
lwrist 100.791
lhand -27.794 -26.5795
lfingers 7.12502
lthumb -1.18692 3.39692
rfemur 0 0 0
rtibia 0
rfoot 0 0
rtoes 0
lfemur -4.90529 -6.44724 -10.4306
ltibia 22.5355
lfoot -26.6277 18.323
ltoes -53.4904
567
root -0.668409 18.7186 5.69379 3.22948 -5.55598 -4.08429
lowerback 5.05367 3.08792 -3.36081
upperback -2.2582 3.7189 -3.24392
thorax -5.17926 1.89286 -1.84144
lowerneck -13.8322 -3.03351 1.32244
upperneck 21.2069 -8.45218 16.2235
head 9.78778 -2.10908 4.37722
rclavicle 5.81942e-014 4.77083e-015
rhumerus 57.2408 36.6826 -21.8661
rradius 108.436
rwrist -15.7201
rhand -8.5203 -37.5507
rfingers 7.12502
rthumb 17.4082 -66.7912
lclavicle 5.81942e-014 4.77083e-015
lhumerus 6.03062 17.9303 83.7552
lradius 118.25
lwrist 100.759
lhand -27.6916 -26.6056
lfingers 7.12502
lthumb -1.08808 3.37137
rfemur 0 0 0
rtibia 0
rfoot 0 0
rtoes 0
lfemur -4.92505 -6.41663 -10.4473
ltibia 22.5419
lfoot -26.496 18.3211
ltoes -53.6521
568
root -0.666862 18.7186 5.69318 3.215 -5.52293 -4.096
lowerback 5.12259 3.15394 -3.30472
upperback -2.30354 3.79969 -3.35866
thorax -5.25441 1.92915 -2.00627
lowerneck -13.8387 -3.08478 1.50513
upperneck 21.1723 -8.57581 16.2768
head 9.78677 -2.14704 4.34779
rclavicle 4.14466e-014 -6.36111e-015
rhumerus 57.7109 36.346 -21.9267
rradius 108.473
rwrist -15.8164
rhand -7.8468 -37.5662
rfingers 7.12502
rthumb 18.0562 -66.7481
lclavicle 4.14466e-014 -6.36111e-015
lhumerus 6.14606 17.4604 83.5979
lradius 118.158
lwrist 100.738
lhand -27.6747 -26.5572
lfingers 7.12502
lthumb -1.07177 3.41988
rfemur 0 0 0
rtibia 0
rfoot 0 0
rtoes 0
lfemur -4.92946 -6.35464 -10.4268
ltibia 22.5536
lfoot -26.4571 18.2672
ltoes -53.7276
